PathFileType	3	(X/Y/Z)	D:\Vicon Database\Healthy Subjects\S0040\Jan. 30, 2020\Force Plate Walk 10.trc
DataRate	CameraRate	NumFrames	NumMarkers	Units	OrigDataRate	OrigDataStartFrame	OrigNumFrames
100.0	100.0	4	53	mm	100.0	240	338	
Frame#	Time	right_foot_cluster2			right_foot_cluster3			sternum_cluster1			sternum_cluster2			sternum_cluster3			left_asis			right_asis			left_psis			right_psis			sacrum_cluster1			sacrum_cluster2			sacrum_cluster3			left_lat_femoral_epicondyle			left_anterior_thigh15			left_anterior_thigh25			left_anterior_thigh50			left_lateral_thigh25			left_lateral_thigh50			left_thigh_cluster1			left_thigh_cluster2			left_thigh_cluster3			left_fibular_head			left_tibial_tuberosity			left_anterior_shank30			left_lateral_malleolus			left_shank_cluster1			left_shank_cluster2			left_shank_cluster3			left_heel			left_metatarsal2			left_foot_cluster1			left_foot_cluster2			left_foot_cluster3			right_lat_femoral_epicondyle			right_anterior_thigh15			right_anterior_thigh25			right_anterior_thigh50			right_lateral_thigh25			right_lateral_thigh50			right_thigh_cluster1			right_thigh_cluster2			right_thigh_cluster3			right_fibular_head			right_tibial_tuberosity			right_lateral_distal_shank			right_anterior_shank30			right_lateral_malleolus			right_shank_cluster1			right_shank_cluster2			right_shank_cluster3			right_heel			right_metatarsal2			right_foot_cluster1			
		X1	Y1	Z1	X2	Y2	Z2	X3	Y3	Z3	X4	Y4	Z4	X5	Y5	Z5	X6	Y6	Z6	X7	Y7	Z7	X8	Y8	Z8	X9	Y9	Z9	X10	Y10	Z10	X11	Y11	Z11	X12	Y12	Z12	X13	Y13	Z13	X14	Y14	Z14	X15	Y15	Z15	X16	Y16	Z16	X17	Y17	Z17	X18	Y18	Z18	X19	Y19	Z19	X20	Y20	Z20	X21	Y21	Z21	X22	Y22	Z22	X23	Y23	Z23	X24	Y24	Z24	X25	Y25	Z25	X26	Y26	Z26	X27	Y27	Z27	X28	Y28	Z28	X29	Y29	Z29	X30	Y30	Z30	X31	Y31	Z31	X32	Y32	Z32	X33	Y33	Z33	X34	Y34	Z34	X35	Y35	Z35	X36	Y36	Z36	X37	Y37	Z37	X38	Y38	Z38	X39	Y39	Z39	X40	Y40	Z40	X41	Y41	Z41	X42	Y42	Z42	X43	Y43	Z43	X44	Y44	Z44	X45	Y45	Z45	X46	Y46	Z46	X47	Y47	Z47	X48	Y48	Z48	X49	Y49	Z49	X50	Y50	Z50	X51	Y51	Z51	X52	Y52	Z52	X53	Y53	Z53	
240	2.39	3579.2412	115.51841	-207.99725	3581.2227	118.07535	-245.04524	3142.1255	1427.9221	-149.92494	3132.1755	1399.2448	-141.76585	3134.0049	1401.4471	-179.68855	3170.4629	1058.7466	-31.572189	3183.071	1049.1415	-280.55978	3339.7305	1072.6906	-69.598846	3345.6951	1070.3931	-187.62923				3357.4707	1102.8125	-148.32826	3359.509	1099.6871	-108.80441	3094.8779	547.50275	-17.983137	3032.4614	651.79602	-72.790642	3041.8799	736.77264	-53.24992	3084.4658	865.21338	-30.81119	3139.5195	692.73981	11.63375	3176.8425	835.96173	43.789944	3166.3057	789.50519	47.633209	3160.2385	760.15942	43.525036	3127.6182	779.1911	45.099743	3076.594	469.3703	-15.784918	3028.4343	468.17383	-76.983803	3050.0613	213.89226	-93.167053	3100.1716	100.45998	-61.565636	3031.5366	411.11346	-107.82056	3025.3811	383.63892	-101.05325	3045.5527	384.92551	-134.1019	3174.5532	65.586739	-96.461708	2956.7112	77.64547	-104.80437	3018.5723	122.32361	-96.591576	2993.8545	106.82691	-87.324722	2990.998	112.91338	-125.17947	3299.6226	508.72247	-299.39825	3187.731	571.99103	-259.67813	3160.3562	655.20337	-253.75082	3151.8196	789.87036	-252.38519	3272.3462	662.64825	-319.01657	3259.1709	808.01971	-334.02359	3273.437	760.03271	-340.78815	3264.9084	732.99384	-340.18082	3302.1167	734.38831	-330.38406	3346.9841	463.71289	-301.86203	3306.6978	416.07477	-264.93976	3553.7971	295.9624	-268.00351	3507.355	264.72131	-231.25529	3627.22	224.95528	-249.33257	3355.1484	368.92999	-205.49643	3378.5547	355.20206	-195.03368	3370.2439	341.62698	-229.52928	3680.3379	280.05688	-202.50827	3600.3665	76.81813	-214.23114	3573.7134	144.41866	-217.86754
241	2.4	3561.4097	120.45522	-207.38542	3563.3328	122.29708	-244.53915	3130.0481	1429.5574	-150.55037	3119.3916	1400.8636	-141.8591	3121.3499	1403.537	-179.7692	3156.8052	1060.5377	-31.250223	3170.5049	1050.3082	-280.5607	3326.3247	1074.2296	-69.303421	3332.9126	1071.121	-187.29762				3344.3035	1103.8051	-148.1011	3345.9568	1100.8059	-108.56618	3088.4092	546.77655	-17.325325	3023.7268	650.25409	-71.63269	3031.7012	735.54578	-52.603283	3072.4473	864.84137	-30.224075	3130.4453	693.18689	12.286127	3165.2271	837.13452	44.318001	3155.5925	790.44684	48.53875	3149.6709	761.48029	43.702457	3116.9758	779.73822	45.559673	3070.8552	468.68246	-14.838028	3021.8345	466.55835	-75.532349	3047.9763	212.87993	-92.716782	3099.9648	100.30074	-61.269123	3026.158	409.84689	-106.79863	3020.4092	382.20428	-100.09232	3040.4089	383.79608	-133.22745	3174.1782	65.651978	-96.3946	2956.5867	77.104286	-104.66969	3018.3818	122.06745	-96.391335	2993.5259	106.23509	-87.35759	2990.7244	112.88181	-124.90066	3274.0166	507.96695	-301.32944	3163.6333	574.4165	-261.36481	3140.0635	657.57349	-255.54376	3135.7271	792.25897	-253.1265	3251.4224	662.35876	-319.83493	3242.8159	808.15576	-334.46512	3255.8745	760.00824	-341.35379	3246.3796	732.97186	-341.03793	3283.6318	733.61469	-330.95499	3320.8738	464.05093	-304.26575	3280.5396	416.22192	-266.85608	3530.1821	300.47235	-268.71783	3483.9778	268.89743	-232.31122	3604.5662	231.47272	-249.69989	3329.48	369.53693	-207.04823	3353.407	355.98154	-197.64528	3344.7876	342.78809	-232.02208	3655.6089	288.6973	-203.19397	3584.4148	81.389542	-214.18158	3554.2131	148.71724	-216.61214
242	2.41	3539.9592	126.52278	-205.88652	3541.137	128.41849	-243.22964	3117.2747	1431.2935	-150.58667	3106.5671	1402.4773	-141.91646	3108.9888	1404.8748	-180.01463	3142.9114	1062.3616	-31.237713	3158.1367	1051.5773	-280.71631	3312.9976	1075.8557	-68.866837	3320.2668	1071.9409	-186.91597				3331.3447	1104.9688	-147.70703	3332.5364	1102.0737	-108.18274	3082.0835	546.40424	-16.771221	3015.2207	648.61792	-70.599945	3022.0864	733.70648	-52.004139	3060.8125	864.26276	-30.008713	3122.0754	693.19531	12.611542	3153.3865	838.07611	44.590031	3142.5242	792.1134	49.510223	3139.7161	761.78564	44.230423	3106.4063	779.89209	45.871391	3065.3098	467.94992	-14.090816	3016.4419	465.23306	-74.818069	3045.8948	211.99474	-92.405128	3099.9697	100.21362	-61.276279	3021.2258	408.70978	-106.05878	3016.1746	380.79916	-99.562256	3036.1343	382.79877	-132.57816	3174.1414	65.792191	-96.213539	2956.4602	76.570007	-104.57518	3018.0496	121.88057	-96.485039	2993.3914	105.85151	-86.939354	2990.4841	112.50809	-124.74641	3248.637	508.24731	-302.96811	3142.1023	576.47742	-262.13776	3120.0081	660.49603	-256.60342	3119.6086	795.02472	-253.82468	3231.3088	662.72107	-321.56903	3226.7759	808.9115	-335.22757	3238.8872	760.55475	-341.9003	3228.7258	734.03735	-342.58621	3265.6213	733.25159	-331.47858	3294.3896	464.56689	-305.99231	3254.4802	416.61154	-268.33453	3506.2007	305.09073	-269.19592	3460.947	272.95816	-232.43437	3581.0002	237.754	-249.82828	3304.0149	370.2569	-208.82982	3327.8655	356.51318	-198.68976	3320.9744	343.89755	-234.0461	3632.2478	295.86514	-204.38162	3564.3728	87.461105	-213.28067	3532.2034	154.7106	-215.06442
243	2.42	3515.2534	133.16502	-204.358	3515.645	134.44984	-242.45432	3104.5186	1432.7749	-150.4738	3093.8799	1404.2045	-142.10771	3096.4368	1406.8076	-180.13876	3129.3049	1063.743	-31.256407	3146.0012	1053.1014	-280.95547	3299.8772	1077.4358	-68.356606	3307.7744	1072.902	-186.45021				3318.5295	1106.26	-147.26241	3319.3997	1103.5139	-107.71098	3075.7314	545.86548	-16.151781	3008.208	646.31781	-70.428482	3012.9629	731.79816	-51.851788	3049.5916	863.45209	-30.206694	3113.1021	693.62061	13.169951	3142.4045	838.94373	44.542957	3133.7231	792.01227	48.96394	3129.7522	762.41718	44.803299	3096.3901	780.07758	46.496933	3059.6665	467.19043	-13.432084	3013.2092	463.60208	-74.741928	3044.5012	211.11476	-92.054283	3099.8774	100.18706	-61.263432	3017.3496	407.41315	-105.69476	3012.574	379.68988	-99.060013	3032.6536	381.86737	-132.11734	3174.0847	65.79837	-96.307014	2956.375	76.260735	-104.46977	3017.9385	121.65041	-96.457748	2992.8855	106.0776	-86.741066	2990.3103	111.95377	-124.65607	3223.366	508.91388	-304.61551	3119.2085	579.35468	-262.77902	3100.1663	663.71088	-257.14386	3103.5483	798.07367	-254.20714	3210.9612	663.15375	-321.74637	3211.5798	809.68823	-334.80093	3221.6528	761.03381	-342.45013	3211.1235	734.80402	-343.45807	3247.6753	733.18616	-331.89987	3268.2031	465.50919	-307.62112	3228.3579	417.67889	-269.38235	3481.7302	309.75769	-269.94574	3436.9517	276.59225	-232.37933	3556.9353	243.55647	-249.92744	3278.5745	371.3125	-209.4675	3302.7571	358.24884	-199.85564	3295.812	345.54074	-234.94728	3609.9346	300.88913	-205.70735	3538.541	93.707825	-212.02783	3507.7712	160.88004	-213.65405
